<svg width="32" height="32" viewBox="0 0 32 32" fill="none" xmlns="http://www.w3.org/2000/svg">
<rect x="28.842" y="2.64865" width="1" height="4.01921" rx="0.5" transform="rotate(45 28.842 2.64865)" fill="#FFB703"/>
<rect x="8" y="3.70709" width="1" height="4.01921" rx="0.5" transform="rotate(-45 8 3.70709)" fill="#FFB703"/>
<rect x="18" width="1" height="3" rx="0.5" fill="#FFB703"/>
<rect x="32" y="13" width="1" height="3" rx="0.5" transform="rotate(90 32 13)" fill="#FFB703"/>
<circle cx="18.5" cy="13.5" r="8.5" fill="#FFB703"/>
<path d="M0.0310257 23.5972C-0.368974 27.5972 3.19767 29.0972 5.03101 29.0972H23.031C24.531 29.0972 30.931 29.0972 30.531 23.0972C30.131 17.0972 25.531 16.4305 23.031 17.0972C23.3643 16.5972 23.631 15.1972 22.031 13.5972C20.431 11.9972 18.3643 12.5972 17.531 13.0972C16.531 11.0972 13.431 7.59718 9.03101 9.59718C4.63101 11.5972 4.53102 16.0972 5.03103 18.0972C3.53103 18.2638 0.431026 19.5972 0.0310257 23.5972Z" fill="#8ECAE6"/>
</svg>
